<svg width="150" height="38" viewBox="0 0 150 38" fill="none" xmlns="http://www.w3.org/2000/svg">
<circle cx="19" cy="19" r="18" stroke="white" stroke-width="2"/>
<path d="M10.8701 29V26.3975L12.4824 25.9912V12.2168L10.5527 11.8105V9.19531H16.9131V16.9648C17.3193 16.347 17.8271 15.8688 18.4365 15.5303C19.0459 15.1833 19.7526 15.0098 20.5566 15.0098C21.877 15.0098 22.9391 15.4837 23.7432 16.4316C24.5472 17.3711 24.9492 18.8268 24.9492 20.7988V25.9912L26.5488 26.3975V29H19.1855V26.3975L20.4932 25.9912V20.7734C20.4932 19.8763 20.3408 19.2627 20.0361 18.9326C19.7399 18.5941 19.3083 18.4248 18.7412 18.4248C18.3519 18.4248 18.0007 18.4925 17.6875 18.6279C17.3743 18.7633 17.1162 18.9792 16.9131 19.2754V25.9912L18.2207 26.3975V29H10.8701Z" fill="white"/>
<path d="M116.266 29V26.3975L117.865 25.9912V18.2852L115.961 17.8789V15.2637H122.08L122.232 17.1807C122.689 16.4951 123.248 15.9619 123.908 15.5811C124.577 15.2002 125.334 15.0098 126.181 15.0098C127.467 15.0098 128.483 15.4456 129.228 16.3174C129.972 17.1891 130.345 18.5729 130.345 20.4688V25.9912L131.944 26.3975V29H124.581V26.3975L125.876 25.9912V20.4561C125.876 19.7197 125.728 19.1992 125.432 18.8945C125.135 18.5814 124.712 18.4248 124.162 18.4248C123.747 18.4248 123.392 18.501 123.096 18.6533C122.799 18.7972 122.541 19.0173 122.321 19.3135V25.9912L123.464 26.3975V29H116.266Z" fill="white"/>
<path d="M106.363 29.2666C105.035 29.2666 103.951 28.89 103.113 28.1367C102.275 27.3835 101.856 26.3805 101.856 25.1279C101.856 23.8415 102.373 22.7878 103.405 21.9668C104.446 21.1458 106.016 20.7354 108.115 20.7354H109.55V19.9229C109.55 19.3727 109.393 18.9072 109.08 18.5264C108.767 18.137 108.272 17.9424 107.595 17.9424C107.307 17.9424 107.036 17.9805 106.782 18.0566C106.537 18.1243 106.312 18.2259 106.109 18.3613L105.805 20.1133H102.669L102.605 16.292C103.384 15.945 104.197 15.6445 105.043 15.3906C105.898 15.1367 106.85 15.0098 107.899 15.0098C109.77 15.0098 111.255 15.4414 112.355 16.3047C113.456 17.1595 114.006 18.3825 114.006 19.9736V25.0391C114.006 25.2337 114.006 25.4242 114.006 25.6104C114.014 25.7965 114.035 25.9743 114.069 26.1436L115.555 26.3975V29H110.35C110.24 28.8477 110.121 28.6445 109.994 28.3906C109.867 28.1367 109.778 27.8828 109.728 27.6289C109.313 28.1452 108.847 28.5472 108.331 28.835C107.815 29.1227 107.159 29.2666 106.363 29.2666ZM107.734 26.1182C108.056 26.1182 108.378 26.0547 108.699 25.9277C109.029 25.7923 109.313 25.5934 109.55 25.3311V23.3506H108.166C107.565 23.3506 107.1 23.4818 106.77 23.7441C106.448 24.0065 106.287 24.3535 106.287 24.7852C106.287 25.1999 106.423 25.5257 106.693 25.7627C106.964 25.9997 107.311 26.1182 107.734 26.1182Z" fill="white"/>
<path d="M93.0586 29V26.3975L94.6709 25.9912V18.2852L92.7539 17.8789V15.2637H99.127V25.9912L100.727 26.3975V29H93.0586ZM94.5439 12.6611V9.19531H99.127V12.6611H94.5439Z" fill="white"/>
<path d="M86.0508 29.2666C84.9674 29.2666 83.9561 29.1693 83.0166 28.9746C82.0856 28.7715 81.2435 28.4964 80.4902 28.1494L80.4395 23.8711H83.4482L83.9561 25.8643C84.1338 25.9743 84.3623 26.0716 84.6416 26.1562C84.9209 26.2324 85.2552 26.2705 85.6445 26.2705C86.3639 26.2705 86.859 26.1732 87.1299 25.9785C87.4007 25.7839 87.5361 25.5384 87.5361 25.2422C87.5361 24.9544 87.3796 24.6921 87.0664 24.4551C86.7617 24.2096 86.1058 23.9938 85.0986 23.8076C83.4906 23.4945 82.3057 22.9613 81.5439 22.208C80.7822 21.4463 80.4014 20.4984 80.4014 19.3643C80.4014 18.5941 80.5791 17.8831 80.9346 17.2314C81.29 16.5798 81.8698 16.055 82.6738 15.6572C83.4863 15.251 84.5697 15.0479 85.9238 15.0479C86.9564 15.0479 87.9382 15.1367 88.8691 15.3145C89.8086 15.4922 90.5788 15.7165 91.1797 15.9873L91.167 20.126H88.1709L87.79 18.3486C87.5954 18.2132 87.3753 18.1117 87.1299 18.0439C86.8844 17.9762 86.6094 17.9424 86.3047 17.9424C85.7376 17.9424 85.3229 18.0439 85.0605 18.2471C84.7982 18.4502 84.667 18.7126 84.667 19.0342C84.667 19.2204 84.722 19.4066 84.832 19.5928C84.9505 19.779 85.179 19.9567 85.5176 20.126C85.8561 20.2952 86.3512 20.4518 87.0029 20.5957C88.5687 20.9427 89.7451 21.4251 90.5322 22.043C91.3278 22.6608 91.7256 23.6003 91.7256 24.8613C91.7256 26.2155 91.2389 27.2904 90.2656 28.0859C89.3008 28.873 87.8958 29.2666 86.0508 29.2666Z" fill="white"/>
<path d="M69.2168 29.2666C67.7949 29.2666 66.6777 28.818 65.8652 27.9209C65.0527 27.0238 64.6465 25.6357 64.6465 23.7568V18.2852L63.1738 17.8789V15.2637H64.6465H69.1025V23.7822C69.1025 24.4593 69.2422 24.9756 69.5215 25.3311C69.8092 25.6781 70.2367 25.8516 70.8037 25.8516C71.1338 25.8516 71.4596 25.7923 71.7812 25.6738C72.1113 25.5469 72.4033 25.3607 72.6572 25.1152V18.2852L71.1592 17.8789V15.2637H72.6572H77.1133V25.9912L78.8271 26.3975V29H73.2412L72.9492 27.4385C72.5091 28.0309 71.9717 28.4837 71.3369 28.7969C70.7106 29.11 70.0039 29.2666 69.2168 29.2666Z" fill="white"/>
<path d="M47.584 29V26.3975L49.1963 25.9912V12.2168L47.2666 11.8105V9.19531H53.627V16.9648C54.0332 16.347 54.541 15.8688 55.1504 15.5303C55.7598 15.1833 56.4665 15.0098 57.2705 15.0098C58.5908 15.0098 59.653 15.4837 60.457 16.4316C61.2611 17.3711 61.6631 18.8268 61.6631 20.7988V25.9912L63.2627 26.3975V29H55.8994V26.3975L57.207 25.9912V20.7734C57.207 19.8763 57.0547 19.2627 56.75 18.9326C56.4538 18.5941 56.0221 18.4248 55.4551 18.4248C55.0658 18.4248 54.7145 18.4925 54.4014 18.6279C54.0882 18.7633 53.8301 18.9792 53.627 19.2754V25.9912L54.9346 26.3975V29H47.584Z" fill="white"/>
</svg>
